<?xml version="1.0" encoding="UTF-8"?>
<svg version="1.1" xmlns="http://www.w3.org/2000/svg" width="277" height="249">
<path d="M0 0 C91.41 0 182.82 0 277 0 C277 82.17 277 164.34 277 249 C185.59 249 94.18 249 0 249 C0 166.83 0 84.66 0 0 Z " fill="#FEFEFE" transform="translate(0,0)"/>
<path d="M0 0 C0.68320313 0.59425781 1.36640625 1.18851563 2.0703125 1.80078125 C3.13208998 2.63503498 4.1944914 3.46849588 5.2578125 4.30078125 C23.39171099 20.41980213 36.09310009 45.5867005 38.0703125 69.80078125 C39.16615123 88.44953852 37.56796773 106.89587138 29.0703125 123.80078125 C28.78671875 124.38666016 28.503125 124.97253906 28.2109375 125.57617188 C23.82954932 134.58957849 18.89672037 142.3844369 12.0703125 149.80078125 C11.59464844 150.32414063 11.11898437 150.8475 10.62890625 151.38671875 C-0.50564694 163.51797107 -12.66932834 171.47142109 -27.9296875 177.80078125 C-28.81914062 178.17976562 -29.70859375 178.55875 -30.625 178.94921875 C-54.9446518 188.6044835 -83.10636982 186.90065433 -107.01171875 176.93261719 C-116.58162103 172.68383289 -124.82594746 167.45032254 -132.9296875 160.80078125 C-133.60515625 160.26582031 -134.280625 159.73085937 -134.9765625 159.1796875 C-153.88636963 143.74225646 -166.62025602 118.06814256 -169.70703125 94.13476562 C-172.53281208 64.51364198 -164.81419821 36.81517561 -145.9296875 13.80078125 C-145.39472656 13.1253125 -144.85976562 12.44984375 -144.30859375 11.75390625 C-128.9919037 -7.00800135 -104.24274599 -19.54501836 -80.4375 -22.91796875 C-51.43581807 -25.24327064 -22.6242584 -19.22688626 0 0 Z " fill="#477C9E" transform="translate(193.9296875,45.19921875)"/>
<path d="M0 0 C6.08929873 15.86959698 11.74453783 31.83528012 17 48 C9.84739039 47.39756928 2.84749293 46.3654517 -4.2109375 45.07421875 C-5.78326645 44.79092461 -5.78326645 44.79092461 -7.38735962 44.50190735 C-9.5979283 44.10280282 -11.80815992 43.70182732 -14.01806641 43.29907227 C-17.33027781 42.69564757 -20.64353609 42.09828356 -23.95703125 41.50195312 C-30.30856153 40.35519686 -36.65503778 39.18249435 -43 38 C-44.00760376 37.81407288 -45.01520752 37.62814575 -46.05334473 37.43658447 C-48.88383911 36.91133989 -51.7117093 36.37389752 -54.5390625 35.83203125 C-55.38584564 35.67611008 -56.23262878 35.5201889 -57.10507202 35.35954285 C-59.08418751 34.97275413 -61.04528175 34.49556049 -63 34 C-63.33 33.34 -63.66 32.68 -64 32 C-52.51180798 17.51840583 -35.89154634 5.61997771 -17.75 1.3125 C-16.73421875 1.06113281 -15.7184375 0.80976562 -14.671875 0.55078125 C-9.76476202 -0.1852857 -4.95176265 -0.10534479 0 0 Z " fill="#D7E3E9" transform="translate(123,39)"/>
<path d="M0 0 C2.52956453 2.52956453 2.89542062 4.56742433 3.875 8 C5.06166796 11.99627888 6.28099723 15.89782665 7.875 19.75 C9.82686773 24.48067178 11.5328994 29.28109217 13.21289062 34.11279297 C15.10952909 39.53825078 17.07088632 44.93800288 19.0546875 50.33203125 C19.60485085 51.83128667 20.15498076 53.33055436 20.70507812 54.82983398 C21.538481 57.10074708 22.37351589 59.37099264 23.21362305 61.63943481 C24.00867226 63.78672177 24.79780617 65.93610359 25.5859375 68.0859375 C25.82939911 68.73838943 26.07286072 69.39084137 26.32369995 70.06306458 C27.34631529 72.86681378 28 74.9870662 28 78 C4.32844948 75.55121891 -15.0195866 63.10374284 -30 45 C-30.62648437 44.33742187 -31.25296875 43.67484375 -31.8984375 42.9921875 C-33 41 -33 41 -32.47265625 38.5703125 C-30.76482099 35.58952842 -28.80916904 33.36172653 -26.4375 30.875 C-22.23817306 26.39586958 -18.30744904 21.77168283 -14.44921875 16.9921875 C-9.73949948 11.23836778 -4.85700947 5.62952875 0 0 Z " fill="#D7E3E9" transform="translate(88,135)"/>
<path d="M0 0 C0.66 0 1.32 0 2 0 C2.82134989 2.49738858 3.63215748 4.99744805 4.4375 7.5 C4.66759766 8.19609375 4.89769531 8.8921875 5.13476562 9.609375 C11.62828395 29.93691064 8.44316461 53.11367078 -1 72 C-18.18347424 69.83784099 -35.05421073 66.52246815 -52 63 C-50.25270649 59.97913512 -48.4942948 57.22912734 -46.1796875 54.6171875 C-45.38401367 53.71129883 -45.38401367 53.71129883 -44.57226562 52.78710938 C-43.73211914 51.84061523 -43.73211914 51.84061523 -42.875 50.875 C-39.01005687 46.47195429 -35.18230766 42.05839573 -31.5 37.5 C-26.38118355 31.18336178 -21.02775791 25.07637921 -15.69042969 18.94482422 C-12.88847887 15.72120489 -10.09789349 12.48792955 -7.3125 9.25 C-6.8074292 8.66565186 -6.3023584 8.08130371 -5.78198242 7.47924805 C-3.69659626 5.05221886 -1.77771398 2.66657097 0 0 Z " fill="#D7E3E9" transform="translate(208,93)"/>
<path d="M0 0 C10.07940531 1.25118576 20.07379815 2.78692311 30.06591797 4.60449219 C32.28873817 5.00701496 34.51339861 5.39811953 36.73828125 5.7890625 C38.16418626 6.04618964 39.58997252 6.30397638 41.015625 6.5625 C42.28696289 6.79066406 43.55830078 7.01882812 44.86816406 7.25390625 C48 8 48 8 51 10 C44.4048056 18.19712792 37.56617603 26.15617731 30.65966797 34.09033203 C24.45127377 41.23391241 18.27176028 48.39645872 12.3125 55.75 C3.3362173 66.77379245 3.3362173 66.77379245 -1 71 C-1.66 71 -2.32 71 -3 71 C-11.47838356 50.09214151 -11.04178865 27.07246469 -3 6 C-2.0083659 3.99583888 -1.00911383 1.99541707 0 0 Z " fill="#D8E3EA" transform="translate(49,87)"/>
<path d="M0 0 C20.21636221 1.23773646 39.75136248 12.86002095 53.5 27.26171875 C56.18380672 30.37185934 58.62483852 33.6504133 61 37 C56.89296149 46.16185513 48.39202723 53.8893134 41.828125 61.41748047 C37.09998338 66.8512106 32.51549002 72.38772429 28 78 C25.79342518 74.69013777 24.62057412 71.36908277 23.34765625 67.640625 C22.81175946 66.09686672 22.27544456 64.55325353 21.73876953 63.00976562 C21.45608215 62.1932251 21.17339478 61.37668457 20.88214111 60.53540039 C19.38023033 56.21869286 17.84375625 51.91434638 16.30859375 47.609375 C15.99258209 46.72254028 15.67657043 45.83570557 15.35098267 44.92199707 C14.70531657 43.1103552 14.05943134 41.29879141 13.41333008 39.48730469 C12.76030963 37.65551453 12.10797089 35.82348122 11.45629883 33.99121094 C10.49197654 31.28003268 9.5258948 28.56949184 8.55859375 25.859375 C8.25150482 24.99856323 7.94441589 24.13775146 7.62802124 23.25085449 C5.47783711 17.25441739 3.21457449 11.31583119 0.83227539 5.40722656 C0 3 0 3 0 0 Z " fill="#D8E3EA" transform="translate(140,39)"/>
<path d="M0 0 C5.82254392 0.58668541 11.5635764 1.37021798 17.3203125 2.41796875 C18.47505318 2.62463669 18.47505318 2.62463669 19.65312195 2.83547974 C22.14439855 3.28262835 24.63476453 3.73459143 27.125 4.1875 C28.40242569 4.41885147 28.40242569 4.41885147 29.70565796 4.65487671 C35.80558849 5.76009632 41.90314381 6.87796184 48 8 C48.80677185 8.14796021 49.6135437 8.29592041 50.44476318 8.44836426 C54.89357853 9.26464595 59.34056789 10.08970376 63.78485107 10.93032837 C65.13158156 11.18416037 66.47879151 11.43546215 67.82647705 11.68417358 C69.68392313 12.027914 71.53929694 12.382797 73.39453125 12.73828125 C74.43456299 12.93462158 75.47459473 13.13096191 76.54614258 13.33325195 C79 14 79 14 81 16 C67.66450793 31.78426605 49.84225044 44.51794802 29 48 C26.89676466 48.0659735 24.79164276 48.08562245 22.6875 48.0625 C21.08455078 48.04896484 21.08455078 48.04896484 19.44921875 48.03515625 C18.64097656 48.02355469 17.83273438 48.01195312 17 48 C15.21986943 43.09348627 13.4418051 38.18623017 11.66552734 33.27832031 C11.06288377 31.61405981 10.45970776 29.94999199 9.85595703 28.28613281 C6.44884666 18.89539078 3.08279521 9.50331817 0 0 Z " fill="#D8E3EA" transform="translate(116,165)"/>
<path d="M0 0 C1.75957031 0.34804687 1.75957031 0.34804687 3.5546875 0.703125 C5.07222246 0.96242934 6.59050328 1.2173941 8.109375 1.46875 C12.26724294 2.16690269 16.41153008 2.92260127 20.5546875 3.703125 C21.22317789 5.70859618 21.88995746 7.71464579 22.55078125 9.72265625 C23.31054889 11.97830882 24.09959491 14.22412742 24.90234375 16.46484375 C25.36981553 17.79426244 25.83726339 19.12368955 26.3046875 20.453125 C26.53953857 21.09064697 26.77438965 21.72816895 27.01635742 22.38500977 C28.34873454 26.22143223 29.00614575 28.85991597 27.5546875 32.703125 C25.52726816 35.61373345 23.26046976 38.21140754 20.94140625 40.89453125 C18.57115723 43.58527381 18.57115723 43.58527381 16.82421875 46.23046875 C15.20095669 48.51105174 13.87264761 50.12874814 11.5546875 51.703125 C7.3943962 52.31970483 3.65011834 51.51321022 -0.4453125 50.703125 C-1.96284746 50.44382066 -3.48112828 50.1888559 -5 49.9375 C-9.15786794 49.23934731 -13.30215508 48.48364873 -17.4453125 47.703125 C-17.80882813 46.50429687 -17.80882813 46.50429687 -18.1796875 45.28125 C-18.51484375 44.18296875 -18.85 43.0846875 -19.1953125 41.953125 C-19.55496094 40.77363281 -19.91460937 39.59414062 -20.28515625 38.37890625 C-21.67854029 33.9641777 -23.22142647 29.61020308 -24.80859375 25.26171875 C-25.51080808 22.43993725 -25.59394106 21.34860887 -24.4453125 18.703125 C-22.38065438 15.84982064 -20.12238621 13.22195206 -17.83203125 10.546875 C-15.46598996 7.82249001 -15.46598996 7.82249001 -13.71484375 5.171875 C-9.67852042 -0.48894389 -6.77414848 -1.06869518 0 0 Z " fill="#FDFDFE" transform="translate(126.4453125,100.296875)"/>
</svg>
